PathFileType	4	(X/Y/Z)	Patient5_TMGait_0pt45_1_right_08.trc.trc
DataRate	CameraRate	NumFrames	NumMarkers	Units	OrigDataRate	OrigDataStartFrame	OrigNumFrames
57.377049180328	57.377049180328	4	32	mm	57.377049180328	36	       141
Frame#	Time	R.ASIS			L.ASIS			Chest			R.Shoulder			Neck			L.Shoulder			L.Elbow			L.Wrist			R.Elbow			R.Wrist			L.Thigh.Superior			L.Thigh.Lateral			L.Thigh.Inferior			L.Patella			L.Shank.Superior			L.Shank.Lateral			L.Shank.Inferior			L.Heel			L.Midfoot.Lateral			L.Midfoot.Superior			L.Toe			R.Thigh.Superior			R.Thigh.Lateral			R.Thigh.Inferior			R.Patella			R.Shank.Superior			R.Shank.Lateral			R.Shank.Inferior			R.Heel			R.Midfoot.Lateral			R.Midfoot.Superior			R.Toe			
		X1	Y1	Z1	X2	Y2	Z2	X3	Y3	Z3	X4	Y4	Z4	X5	Y5	Z5	X6	Y6	Z6	X7	Y7	Z7	X8	Y8	Z8	X9	Y9	Z9	X10	Y10	Z10	X11	Y11	Z11	X12	Y12	Z12	X13	Y13	Z13	X14	Y14	Z14	X15	Y15	Z15	X16	Y16	Z16	X17	Y17	Z17	X18	Y18	Z18	X19	Y19	Z19	X20	Y20	Z20	X21	Y21	Z21	X22	Y22	Z22	X23	Y23	Z23	X24	Y24	Z24	X25	Y25	Z25	X26	Y26	Z26	X27	Y27	Z27	X28	Y28	Z28	X29	Y29	Z29	X30	Y30	Z30	X31	Y31	Z31	X32	Y32	Z32	

36	13.460000000000	1056.357794327461	973.345136993817	571.540528692857	1014.301938266837	957.533591532893	336.729273483895	1089.163290624903	1434.728509209817	467.508931629817	1010.724711738073	1491.410561028322	647.818773539529	961.704550843716	1555.683026347358	469.991617574658	997.338227098532	1505.825707413472	281.972753278481	872.762177409503	1204.771916446360	156.679239130163	955.148655429913	927.899376710215	129.292279008897	950.257505889139	1171.541478322944	795.751803138122	1155.236871855042	993.668912437053	692.305804014969	1035.971608965387	736.419292618282	303.974893954154	956.224871867118	669.337817451447	266.422840146712	1038.194731643000	605.180644952104	307.299958821195	1021.232686398245	462.164416505469	296.466530771254	925.202452639500	386.976383578571	328.354912424766	821.230453313444	373.127890281734	262.230385990099	829.322551698318	306.876389176791	348.026204310701	586.068416657264	191.732574615364	357.840049448511	641.068135618358	109.543708763516	310.680757549340	756.510935116976	109.804238030111	346.306723797866	814.622822423795	39.648466998733	370.805777982310	1082.324788400516	742.354848998757	595.089750855993	1001.331231309754	658.173941360919	644.281064793610	1083.542917983426	614.190902367675	567.362340434579	1087.868488921097	514.606091294398	590.919463774055	1045.098718144365	415.542514137470	547.535765773566	974.340733869848	343.139215247263	625.904019512543	1025.648712517912	277.236839877545	537.901614895604	900.657121885474	52.653715290245	492.104482828030	976.998854494041	25.213673912057	567.986428232453	1083.770749662371	87.900116253587	546.490380208759	1187.370291256645	43.611182067430	550.016894443472	
37	13.477428571429	1057.525437560578	972.541007070106	573.026274097134	1012.586264557266	956.852057968795	339.297067552375	1091.260652696762	1433.296138264972	470.453070819072	1015.141849193975	1489.879863594009	651.738399340708	964.000693413215	1554.821046594130	474.566256875160	997.804825517806	1505.519992101250	286.159655753861	870.567065008803	1205.181307036246	161.702014057347	952.464725607780	928.205698377256	133.981862029542	956.416863394003	1170.624620124691	801.352507906918	1161.000234894208	993.061097418081	696.933789293978	1042.832580173704	738.778608117149	303.113805237310	966.565099386717	669.019946194418	265.331024276692	1052.133833633801	608.057238481319	305.234360129678	1040.348056607626	463.506157184315	294.446539679079	941.672524536822	388.561048802301	326.508661158250	838.077150733224	377.593208081186	259.758739614264	842.660658080849	312.111399099374	345.792538237809	595.587805256139	212.240599985184	355.464375869778	644.534867649835	125.542931208551	308.898767207381	760.111726626816	117.323289059953	345.005867797859	811.885967880709	39.506559765970	369.537915596357	1077.946923359783	740.791608399699	594.392447839619	995.689396547314	658.168031197861	645.344976547712	1074.626795200087	612.408189729455	566.337165743850	1077.418002110745	513.610025666659	589.701102895689	1034.269961436935	415.732778527322	547.270096337380	965.336930797996	343.020830015285	626.454795345464	1016.096663757155	277.456750209619	537.783242083546	892.768068997705	52.372904970426	491.987478195545	969.009544408670	25.070113420021	568.011136792993	1075.762183421615	87.738404357105	546.197993623836	1179.455810173014	43.572190517730	549.939972135022	
38	13.494857142857	1058.433305595823	971.803209182653	574.607083958230	1010.803659907106	956.164895788062	341.638901316898	1093.088209837066	1431.742389014734	473.007394412570	1019.230343378793	1488.094248132919	655.258833184811	966.080327660211	1553.796500532531	478.745086567941	997.925019594237	1505.034904618508	289.995515649498	868.548722083125	1204.978813039437	166.692035063312	950.266275874237	928.019661660185	138.474079297021	962.812130734803	1169.350268710670	806.514531787768	1166.853466626155	991.561900044713	701.726085224826	1049.513628223375	741.816463543642	302.993822650284	977.031282920213	669.358774070738	264.827979451660	1065.930177355760	611.996628351472	304.271187018229	1059.387736794022	466.035542822811	293.638064151644	958.378814214255	391.143903692620	325.583648261789	855.428412268895	382.626886388105	257.992233494816	856.732944230154	318.033493915895	344.374249508095	606.718219174538	231.620665609161	353.550950640333	650.457569319837	141.520673800415	307.169745693165	765.808108246520	125.917099825896	343.975497500030	811.909191298282	40.271852146694	368.020408723870	1073.294295454770	739.159671125957	593.532956956367	989.754166163821	658.191678885321	646.388811672873	1065.355133018646	610.714074345840	565.327572207143	1066.633989478939	512.749800017907	588.514726097457	1023.051064089375	416.093885328265	547.063831225626	956.137664165057	343.084481302063	627.122717079784	1006.399187490733	277.872676747258	537.723477484869	884.864712098891	52.195235107744	491.964374306994	961.026547924121	24.951506559952	568.061087520593	1067.767161563420	87.620759341168	545.958383026100	1171.537199470366	43.544075419643	549.877210140062	
39	13.512285714286	1058.946603108974	971.156886488138	576.498348745896	1009.112798170212	955.675858073800	343.826935724480	1094.670115769082	1430.262530326748	475.130306905818	1023.002059791885	1486.253120289926	658.324236378959	967.992614875452	1552.785926490932	482.487900365687	997.734110798988	1504.573540426114	293.446431864819	866.759904783295	1204.388868299571	171.579112171129	948.530955002704	927.529392889029	142.762543349130	969.348079173344	1167.929698053761	811.141899755052	1172.711924581113	989.401500748220	706.530891200921	1055.860301923897	745.610466416864	303.806799758990	987.376137794559	670.552202401212	265.027059085568	1079.200876931943	617.051201244275	304.531332235130	1077.873823038500	469.778043756330	293.967613481889	974.963518910180	394.690479437972	325.551337278241	872.782807015107	388.091778178933	257.029305260420	871.254782896683	324.397659317269	343.829441977896	619.063129300655	248.459482793379	352.246682419398	659.056566695144	156.287235388204	305.565778869088	773.995385120501	135.013287189227	343.231022423989	815.675354680009	42.242127835522	366.275409217609	1068.452482632385	737.510658039782	592.924900164379	983.555122180149	658.228202102285	647.507814417438	1056.083097149370	609.170879248771	564.685312914735	1055.871459894778	512.001574982661	587.686960918030	1011.831216957256	416.580312759952	547.077585453228	946.836737713727	343.319967220121	627.924897044279	996.744789035626	278.436180480424	537.839055104174	876.932982887840	52.133025427112	492.052375539154	953.048611237118	24.862145508434	568.144789441573	1059.774923180257	87.552031942218	545.813841570777	1163.602888615752	43.541450798547	549.843508000140	
